# xmcd
# Copyright (C) 1995-1998 Ti Kan
#
# Track frame offsets:
#       150
#       11143
#       28024
#       39643
#
# Disc length: 761 seconds
#
# Revision: 0
# Processed by: cddbd v1.5.2PL0 Copyright (c) Steve Scherf et al.
# Submitted via: CD-Import v1.0
#
DISCID=2b02f704
DTITLE=Hui - Hui
DYEAR=1900
DGENRE=
TTITLE0=Pop Corn
TTITLE1=Pop Corn
TTITLE2=Pop Corn
TTITLE3=Pop Corn
EXTD=
EXTT0=
EXTT1=
EXTT2=
EXTT3=
PLAYORDER=
